<svg width="65" height="69" viewBox="0 0 65 69" fill="none" xmlns="http://www.w3.org/2000/svg">
<path d="M55.8177 0.475372H64.0261V1.35037C63.6355 1.35037 63.1823 1.53266 62.6719 1.89204C62.1563 2.241 61.573 2.85037 60.9219 3.72537C60.2813 4.58996 59.6094 5.72537 58.9011 7.14204C58.1927 8.55871 57.4896 10.3608 56.7969 12.5379L39.5052 62.8295L41.3386 68.2254H34.1094L15.6719 14.4754C15.0313 12.6733 14.4063 10.9702 13.7969 9.37121C13.1823 7.76183 12.599 6.36079 12.0469 5.16287C11.5052 3.97016 10.9896 3.03787 10.5052 2.37121C10.0313 1.69412 9.59899 1.35037 9.21358 1.35037V0.475372H20.6094V1.35037C20.2188 1.35037 20.0886 2.241 20.2136 4.01704C20.3386 5.78266 20.8177 8.01183 21.6511 10.7045L39.1302 61.5587L55.9219 12.3504C58.4219 5.01704 58.3855 1.35037 55.8177 1.35037V0.475372Z" fill="#292929"/>
<path d="M1.20515 43.1686C-0.0188039 38.6009 -0.310471 34.0644 0.330155 29.5644C0.981196 25.054 2.41349 20.8977 4.62182 17.1061C6.84057 13.3144 9.72599 10.0227 13.2677 7.23107C16.8093 4.42899 20.8614 2.41336 25.4343 1.1894C28.7104 0.288362 31.9864 -0.102263 35.2677 0.0227365C38.5593 0.147737 41.7312 0.699821 44.7885 1.66857C47.8406 2.6269 50.7052 3.9967 53.3718 5.77274C56.0385 7.53836 58.3979 9.64253 60.4552 12.0852L58.1427 20.5852H57.2677C55.7937 17.6269 53.9604 14.8144 51.7677 12.1477C49.5854 9.47065 47.1427 7.23107 44.4343 5.4394C41.7364 3.63732 38.7937 2.3769 35.601 1.66857C32.4187 0.960237 29.0906 1.0592 25.6218 1.96024C22.5385 2.79357 19.8354 4.14774 17.5177 6.02274C15.1947 7.88732 13.2677 10.054 11.726 12.5227C10.1843 14.9967 8.9864 17.7102 8.14265 20.6686C7.30932 23.6269 6.8614 26.6217 6.80932 29.6477H8.72599C12.5854 29.6477 16.4343 29.4759 20.2677 29.1269C24.101 28.7675 27.5593 28.33 30.6427 27.8144C34.2364 27.304 37.7104 26.6894 41.0593 25.9811H41.9343V34.1894H41.0593C37.7104 33.554 34.2364 32.9394 30.6427 32.3561C27.5593 31.8977 24.101 31.4811 20.2677 31.1061C16.4343 30.7207 12.5854 30.5227 8.72599 30.5227H6.70515C6.70515 32.3873 6.79891 34.2207 6.99682 36.0227C7.18953 37.83 7.5437 39.6009 8.05932 41.3352C9.47599 46.7415 11.726 51.2467 14.8093 54.8561C17.9031 58.455 21.3614 61.1842 25.1843 63.0436C29.0177 64.9082 33.002 65.9186 37.1427 66.0852C41.2937 66.2415 45.2052 65.5436 48.8718 64.0019C52.5385 62.4602 55.7364 60.1165 58.476 56.9602C61.2104 53.8092 63.0645 49.8248 64.0385 45.0019L64.8927 45.1894C63.8614 50.3977 61.7729 54.7623 58.6218 58.2727C55.4656 61.7727 51.7781 64.3769 47.5593 66.0852C43.351 67.7936 38.851 68.6113 34.0593 68.5436C29.2677 68.4707 24.6843 67.4967 20.3093 65.6061C15.9343 63.705 12.0229 60.8925 8.58015 57.1686C5.14786 53.4342 2.68953 48.7675 1.20515 43.1686Z" fill="#292929"/>
</svg>
