<svg width="201" height="88" viewBox="0 0 201 88" fill="none" xmlns="http://www.w3.org/2000/svg">
<path d="M137.205 44.1517C135.981 39.584 135.69 35.0475 136.33 30.5475C136.981 26.0475 138.398 21.9017 140.58 18.11C142.773 14.3079 145.653 11.0058 149.226 8.21416C152.794 5.41208 156.861 3.39645 161.434 2.17249C164.71 1.27145 167.986 0.891244 171.268 1.02666C174.559 1.15166 177.71 1.70375 180.726 2.67249C183.752 3.63083 186.601 5.00062 189.268 6.77666C191.934 8.54229 194.299 10.6465 196.372 13.0892L194.143 21.5683H193.268C191.794 18.61 189.96 15.7975 187.768 13.1308C185.585 10.4642 183.143 8.22979 180.434 6.4225C177.736 4.62041 174.794 3.35999 171.601 2.65166C168.419 1.94333 165.091 2.04229 161.622 2.94333C157.44 4.04229 153.997 6.00583 151.288 8.83916C148.591 11.6725 146.538 14.9381 145.122 18.6308C143.705 22.3287 142.913 26.2662 142.747 30.4433C142.591 34.6256 143.028 38.584 144.059 42.3183C145.476 47.7246 147.726 52.2298 150.809 55.8392C153.903 59.4381 157.361 62.1725 161.184 64.0475C165.018 65.9121 169.002 66.9225 173.143 67.0892C177.294 67.2454 181.205 66.5475 184.872 65.0058C188.538 63.4537 191.736 61.084 194.476 57.9017C197.21 54.7246 199.065 50.7506 200.038 45.985L200.809 46.1725C199.778 51.3965 197.705 55.7558 194.58 59.2558C191.455 62.7558 187.778 65.36 183.559 67.0683C179.351 68.7767 174.851 69.5944 170.059 69.5267C165.268 69.4694 160.684 68.4954 156.309 66.5892C151.934 64.6881 148.023 61.8756 144.58 58.1517C141.148 54.4173 138.69 49.7506 137.205 44.1517Z" fill="#292929"/>
<path d="M67.1867 43.1808C65.9627 38.6131 65.6867 34.0766 66.3534 29.5766C67.0304 25.0662 68.4627 20.91 70.645 17.1183C72.8377 13.3266 75.6971 10.035 79.2284 7.2433C82.77 4.44122 86.8221 2.42559 91.395 1.20163C95.9627 -0.0171175 100.499 -0.308784 104.999 0.326633C109.51 0.967259 113.666 2.38393 117.458 4.57663C121.249 6.75893 124.541 9.63913 127.333 13.2225C130.135 16.7954 132.15 20.8579 133.374 25.41C134.593 29.9829 134.879 34.5037 134.228 38.9725C133.588 43.4464 132.171 47.5871 129.978 51.3891C127.796 55.1808 124.921 58.4933 121.353 61.3266C117.78 64.1496 113.713 66.1704 109.145 67.3891C104.588 68.6079 100.072 68.8996 95.6034 68.2641C91.1294 67.6287 86.9888 66.1964 83.1867 63.9725C79.395 61.7537 76.0825 58.8787 73.2492 55.3475C70.4263 51.8058 68.4054 47.7537 67.1867 43.1808ZM126.52 27.2433C125.562 23.5245 123.968 19.8891 121.749 16.3475C119.525 12.8058 116.885 9.78497 113.833 7.28497C110.775 4.77455 107.353 2.98809 103.562 1.9308C99.77 0.863092 95.8117 0.878717 91.6867 1.97247C87.5044 3.07143 84.0461 5.03497 81.3117 7.8683C78.5721 10.6912 76.4992 13.9516 75.0825 17.66C73.6659 21.3579 72.895 25.2954 72.77 29.4725C72.645 33.6548 73.0617 37.6131 74.02 41.3475C75.0617 45.0714 76.6711 48.6912 78.8534 52.2016C81.0461 55.7016 83.6867 58.7121 86.77 61.2225C89.8534 63.7381 93.2752 65.5454 97.0409 66.6391C100.801 67.7225 104.775 67.6912 108.958 66.535C113.083 65.4412 116.504 63.4725 119.228 60.6391C121.963 57.8058 124.041 54.5454 125.458 50.8475C126.874 47.1548 127.655 43.2329 127.812 39.0766C127.978 34.9256 127.546 30.9829 126.52 27.2433Z" fill="#292929"/>
<path d="M55.8177 0.475372H64.0261V1.35037C63.6354 1.35037 63.1823 1.53266 62.6719 1.89204C62.1563 2.241 61.5729 2.85037 60.9219 3.72537C60.2813 4.58996 59.6094 5.72537 58.9011 7.14204C58.1927 8.55871 57.4896 10.3608 56.7969 12.5379L39.5052 62.8295L41.3386 68.2254H34.1094L15.6719 14.4754C15.0313 12.6733 14.4063 10.9702 13.7969 9.37121C13.1823 7.76183 12.599 6.36079 12.0469 5.16287C11.5052 3.97016 10.9896 3.03787 10.5052 2.37121C10.0313 1.69412 9.59898 1.35037 9.21356 1.35037V0.475372H20.6094V1.35037C20.2188 1.35037 20.0886 2.241 20.2136 4.01704C20.3386 5.78266 20.8177 8.01183 21.6511 10.7045L39.1302 61.5587L55.9219 12.3504C58.4219 5.01704 58.3854 1.35037 55.8177 1.35037V0.475372Z" fill="#292929"/>
<path d="M1.20515 43.1686C-0.0188039 38.6009 -0.310471 34.0644 0.330155 29.5644C0.981196 25.054 2.41349 20.8977 4.62182 17.1061C6.84057 13.3144 9.72599 10.0227 13.2677 7.23107C16.8093 4.42899 20.8614 2.41336 25.4343 1.1894C28.7104 0.288362 31.9864 -0.102263 35.2677 0.0227365C38.5593 0.147737 41.7312 0.699821 44.7885 1.66857C47.8406 2.6269 50.7052 3.9967 53.3718 5.77274C56.0385 7.53836 58.3979 9.64253 60.4552 12.0852L58.1427 20.5852H57.2677C55.7937 17.6269 53.9604 14.8144 51.7677 12.1477C49.5854 9.47065 47.1427 7.23107 44.4343 5.4394C41.7364 3.63732 38.7937 2.3769 35.601 1.66857C32.4187 0.960237 29.0906 1.0592 25.6218 1.96024C22.5385 2.79357 19.8354 4.14774 17.5177 6.02274C15.1947 7.88732 13.2677 10.054 11.726 12.5227C10.1843 14.9967 8.9864 17.7102 8.14265 20.6686C7.30932 23.6269 6.8614 26.6217 6.80932 29.6477H8.72599C12.5854 29.6477 16.4343 29.4759 20.2677 29.1269C24.101 28.7675 27.5593 28.33 30.6427 27.8144C34.2364 27.304 37.7104 26.6894 41.0593 25.9811H41.9343V34.1894H41.0593C37.7104 33.554 34.2364 32.9394 30.6427 32.3561C27.5593 31.8977 24.101 31.4811 20.2677 31.1061C16.4343 30.7207 12.5854 30.5227 8.72599 30.5227H6.70515C6.70515 32.3873 6.79891 34.2207 6.99682 36.0227C7.18953 37.83 7.5437 39.6009 8.05932 41.3352C9.47599 46.7415 11.726 51.2467 14.8093 54.8561C17.9031 58.455 21.3614 61.1842 25.1843 63.0436C29.0177 64.9082 33.002 65.9186 37.1427 66.0852C41.2937 66.2415 45.2052 65.5436 48.8718 64.0019C52.5385 62.4602 55.7364 60.1165 58.476 56.9602C61.2104 53.8092 63.0645 49.8248 64.0385 45.0019L64.8927 45.1894C63.8614 50.3977 61.7729 54.7623 58.6218 58.2727C55.4656 61.7727 51.7781 64.3769 47.5593 66.0852C43.351 67.7936 38.851 68.6113 34.0593 68.5436C29.2677 68.4707 24.6843 67.4967 20.3093 65.6061C15.9343 63.705 12.0229 60.8925 8.58015 57.1686C5.14786 53.4342 2.68953 48.7675 1.20515 43.1686Z" fill="#292929"/>
<path d="M71.5572 81.428C72.0548 81.6397 72.4683 81.9925 72.7979 82.4942C73.1404 82.9802 73.3148 83.6073 73.3148 84.3756C73.3148 85.6298 73.0111 86.5314 72.4102 87.0723C71.8028 87.5975 71.0726 87.8562 70.2131 87.8562H66.6462C66.4717 87.8562 66.3166 87.7856 66.1809 87.6367C66.0582 87.4721 66 87.2761 66 87.0409V76.8813C66 76.654 66.0582 76.4658 66.1809 76.3169C66.3166 76.1523 66.4717 76.0661 66.6462 76.0661H70.2131C71.0532 76.0661 71.6929 76.3169 72.1258 76.8186C72.5717 77.3203 72.7979 78.0572 72.7979 79.0136C72.7979 79.5623 72.6945 80.0405 72.4877 80.456C72.2809 80.8793 71.9708 81.2007 71.5572 81.428ZM71.3763 79.2644C71.3763 78.7471 71.2535 78.3473 71.0144 78.0729C70.7882 77.8063 70.4587 77.6652 70.0322 77.6652H67.3958V80.9263H70.058C70.4328 80.9263 70.743 80.7852 70.9886 80.4873C71.247 80.1973 71.3763 79.7897 71.3763 79.2644ZM70.2131 86.3197C70.7107 86.3197 71.1178 86.1629 71.428 85.8493C71.7381 85.5201 71.8932 85.0262 71.8932 84.3756C71.8932 83.1448 71.3052 82.5255 70.1356 82.5255H67.3958V86.3197H70.2131Z" fill="#292929"/>
<path d="M84.5062 86.3197C84.713 86.3197 84.8746 86.4059 84.9973 86.5705C85.1137 86.7195 85.1783 86.8998 85.1783 87.1036C85.1783 87.3388 85.1137 87.5269 84.9973 87.668C84.8746 87.7935 84.713 87.8562 84.5062 87.8562H79.6728C79.4983 87.8562 79.3432 87.7856 79.2075 87.6367C79.0847 87.4721 79.0266 87.2761 79.0266 87.0409V76.8813C79.0266 76.654 79.0847 76.4658 79.2075 76.3169C79.3432 76.1523 79.4983 76.0661 79.6728 76.0661H84.5062C84.713 76.0661 84.8746 76.1444 84.9973 76.2855C85.1137 76.4345 85.1783 76.6226 85.1783 76.85C85.1783 77.0851 85.1137 77.2733 84.9973 77.4144C84.8746 77.5633 84.713 77.6339 84.5062 77.6339H80.3965V81.0518H83.8859C84.0733 81.0518 84.2284 81.1302 84.3512 81.2713C84.4869 81.4202 84.5579 81.6083 84.5579 81.8357C84.5579 82.0709 84.4869 82.259 84.3512 82.4001C84.2284 82.5255 84.0733 82.5882 83.8859 82.5882H80.3965V86.3197H84.5062Z" fill="#292929"/>
<path d="M98.3461 86.8214C98.3784 86.9311 98.3978 87.0331 98.3978 87.135C98.3978 87.3701 98.3332 87.5583 98.2169 87.6994C98.0941 87.8483 97.9455 87.9189 97.7775 87.9189C97.6353 87.9189 97.519 87.864 97.4156 87.7621C97.3122 87.6602 97.2217 87.5269 97.1571 87.3545L96.3042 84.8773H92.0135L91.1605 87.3858C91.1217 87.5583 91.0442 87.6915 90.9279 87.7935C90.8245 87.8718 90.7082 87.9189 90.5919 87.9189C90.3851 87.9189 90.23 87.8562 90.1266 87.7307C90.0361 87.6053 89.9974 87.4407 89.9974 87.229C89.9974 87.1663 90.0038 87.0723 90.0232 86.9468L93.5643 76.5364C93.616 76.3718 93.7 76.2385 93.8228 76.1288C93.9391 76.0269 94.0683 75.9877 94.2105 76.0033C94.3656 76.0033 94.4948 76.0582 94.5982 76.1601C94.7016 76.2464 94.7792 76.3718 94.8308 76.5364L98.3461 86.8214ZM92.5304 83.3722H95.7872L94.1588 78.6373L92.5304 83.3722Z" fill="#292929"/>
<path d="M110.445 76.8186C110.445 76.991 110.399 77.1557 110.315 77.3203L107.343 82.4314V87.0409C107.343 87.276 107.272 87.472 107.136 87.6366C107.013 87.7856 106.865 87.8561 106.697 87.8561C106.503 87.8561 106.341 87.7856 106.206 87.6366C106.083 87.472 106.025 87.276 106.025 87.0409V82.306L103.052 77.4457C102.93 77.2419 102.871 77.0302 102.871 76.8186C102.871 76.6148 102.936 76.4266 103.078 76.2542C103.233 76.0895 103.395 76.0033 103.569 76.0033C103.776 76.0033 103.957 76.1287 104.112 76.3796L106.723 80.7695L109.23 76.4109C109.385 76.1444 109.572 76.0033 109.798 76.0033C109.966 76.0033 110.115 76.0895 110.238 76.2542C110.374 76.4266 110.445 76.6148 110.445 76.8186Z" fill="#292929"/>
<path d="M122.085 76.0661C122.292 76.0661 122.453 76.1444 122.576 76.2855C122.692 76.4345 122.757 76.6226 122.757 76.85C122.757 77.0851 122.692 77.2733 122.576 77.4144C122.453 77.5398 122.292 77.6025 122.085 77.6025H119.63V87.0409C119.63 87.2761 119.558 87.4721 119.423 87.6367C119.281 87.7856 119.113 87.8562 118.906 87.8562C118.712 87.8562 118.55 87.7856 118.415 87.6367C118.273 87.4721 118.208 87.2761 118.208 87.0409V77.6025H115.752C115.559 77.6025 115.397 77.5398 115.261 77.4144C115.139 77.2733 115.08 77.0695 115.08 76.8186C115.08 76.6148 115.139 76.4345 115.261 76.2855C115.397 76.1444 115.559 76.0661 115.752 76.0661H122.085Z" fill="#292929"/>
<path d="M135 76.8186C135 76.991 134.955 77.1557 134.871 77.3203L131.898 82.4314V87.0409C131.898 87.276 131.827 87.472 131.692 87.6366C131.569 87.7856 131.42 87.8561 131.252 87.8561C131.058 87.8561 130.897 87.7856 130.761 87.6366C130.638 87.472 130.58 87.276 130.58 87.0409V82.306L127.608 77.4457C127.485 77.2419 127.427 77.0302 127.427 76.8186C127.427 76.6148 127.491 76.4266 127.633 76.2542C127.789 76.0895 127.95 76.0033 128.125 76.0033C128.331 76.0033 128.512 76.1287 128.667 76.3796L131.278 80.7695L133.785 76.4109C133.94 76.1444 134.128 76.0033 134.354 76.0033C134.522 76.0033 134.67 76.0895 134.793 76.2542C134.929 76.4266 135 76.6148 135 76.8186Z" fill="#292929"/>
</svg>
