<svg xmlns="http://www.w3.org/2000/svg" xmlns:xlink="http://www.w3.org/1999/xlink" width="500" zoomAndPan="magnify" viewBox="0 0 375 374.999991" height="500" preserveAspectRatio="xMidYMid meet" version="1.0"><defs><clipPath id="17fb1a4d09"><path d="M 29.738281 29.734375 L 345.484375 29.734375 L 345.484375 345.484375 L 29.738281 345.484375 Z M 29.738281 29.734375 " clip-rule="nonzero"/></clipPath><clipPath id="23289dfc5a"><path d="M 278.441406 211.28125 L 299.914062 211.28125 L 299.914062 234.644531 L 278.441406 234.644531 Z M 278.441406 211.28125 " clip-rule="nonzero"/></clipPath></defs><g clip-path="url(#17fb1a4d09)"><rect x="-37.5" width="450" fill="#ffffff" y="-37.499999" height="449.999989" fill-opacity="1"/><rect x="-37.5" width="450" fill="#ffffff" y="-37.499999" height="449.999989" fill-opacity="1"/><rect x="-37.5" width="450" fill="#ffffff" y="-37.499999" height="449.999989" fill-opacity="1"/></g><path fill="#000000" d="M 91.320312 178.824219 C 91.320312 195.355469 105.714844 201.253906 121.339844 201.253906 C 125.75 201.253906 129.054688 200.609375 132.492188 198.984375 L 136.378906 187.707031 C 131.972656 191.402344 126.523438 191.855469 121.082031 191.855469 C 106.558594 191.855469 92.488281 188.871094 92.488281 179.34375 C 92.488281 175.972656 95.019531 173.964844 100.855469 173.964844 C 109.347656 173.964844 115.894531 180.1875 125.488281 179.863281 C 130.027344 179.730469 134.113281 176.6875 134.113281 171.820312 C 134.113281 158.921875 100.207031 163.394531 100.207031 151.078125 C 100.207031 146.539062 104.226562 144.269531 113.691406 144.269531 C 121.988281 144.269531 130.609375 146.476562 134.371094 149.195312 L 137.027344 139.472656 C 133.007812 136.230469 121.859375 135.128906 115.179688 135.128906 C 96.507812 135.128906 92.878906 143.945312 92.878906 147.898438 C 92.878906 157.496094 102.214844 159.246094 111.355469 161.453125 C 118.292969 163.136719 129.378906 165.144531 129.378906 168.96875 C 129.378906 170.464844 128.019531 171.046875 126.523438 171.046875 C 120.496094 171.046875 115.570312 166.507812 106.949219 166.507812 C 98.128906 166.507812 91.320312 170.589844 91.320312 178.824219 Z M 91.320312 178.824219 " fill-opacity="1" fill-rule="nonzero"/><path fill="#000000" d="M 139.75 135.777344 C 146.492188 157.886719 150.382812 170.980469 156.992188 192.570312 C 158.355469 197.042969 160.949219 201.253906 165.683594 201.253906 C 170.414062 201.253906 173.007812 197.042969 174.371094 192.570312 C 180.917969 170.980469 184.9375 157.886719 191.613281 135.777344 L 181.695312 135.777344 C 175.015625 157.886719 171.257812 171.046875 164.449219 192.570312 C 163.867188 194.382812 163.023438 194.96875 161.597656 194.96875 C 153.039062 194.96875 152.066406 143.363281 153.882812 135.777344 Z M 139.75 135.777344 " fill-opacity="1" fill-rule="nonzero"/><path fill="#000000" d="M 221.109375 201.253906 C 236.476562 201.253906 246.71875 188.03125 246.71875 168.195312 C 246.71875 148.355469 236.476562 135.128906 221.109375 135.128906 C 205.679688 135.128906 195.5 148.355469 195.5 168.195312 C 195.5 188.03125 205.679688 201.253906 221.109375 201.253906 Z M 205.613281 168.128906 C 205.613281 148.875 211.773438 136.035156 221.042969 136.035156 C 230.378906 136.035156 236.605469 148.875 236.605469 168.128906 C 236.605469 187.449219 230.378906 200.28125 221.042969 200.28125 C 211.773438 200.28125 205.613281 187.449219 205.613281 168.128906 Z M 205.613281 168.128906 " fill-opacity="1" fill-rule="nonzero"/><path fill="#000000" d="M 275.78125 201.253906 C 289.328125 201.253906 295.683594 193.410156 295.683594 193.410156 L 290.496094 185.113281 C 290.496094 185.113281 287.316406 191.660156 276.363281 191.660156 C 261.582031 191.660156 253.609375 177.203125 253.609375 160.738281 C 253.609375 148.355469 258.730469 139.539062 267.609375 139.539062 C 274.933594 139.539062 282.324219 143.558594 287.449219 149.585938 L 293.800781 142.003906 C 291.402344 138.371094 284.726562 135.128906 278.050781 135.128906 C 259.636719 135.128906 248.484375 148.875 248.484375 167.347656 C 248.484375 185.179688 257.753906 201.253906 275.78125 201.253906 Z M 275.78125 201.253906 " fill-opacity="1" fill-rule="nonzero"/><path fill="#000000" d="M 296.355469 227.300781 C 296.355469 227.308594 296.375 227.359375 296.355469 227.300781 Z M 296.355469 227.300781 " fill-opacity="1" fill-rule="nonzero"/><g clip-path="url(#23289dfc5a)"><path fill="#000000" d="M 299.628906 233.28125 C 299.410156 231.699219 299.648438 230.089844 299.636719 228.496094 C 299.625 227.085938 299.378906 225.28125 297.75 225 C 297.882812 224.46875 298.121094 223.964844 298.222656 223.417969 C 298.28125 223.085938 298.332031 222.738281 298.238281 222.414062 C 298.167969 222.160156 297.957031 221.992188 297.867188 221.757812 C 297.816406 221.621094 297.851562 221.550781 297.882812 221.390625 C 297.933594 221.164062 297.878906 221.042969 297.847656 220.839844 C 297.832031 220.730469 297.765625 220.78125 297.78125 220.667969 C 297.796875 220.558594 298.003906 220.320312 298.058594 220.222656 C 298.125 220.125 298.179688 220.015625 298.222656 219.902344 C 298.257812 219.785156 298.21875 219.640625 298.25 219.542969 C 298.335938 219.257812 298.980469 218.691406 298.433594 218.460938 C 298.042969 218.296875 297.839844 218.675781 297.65625 218.921875 C 297.503906 219.128906 297.304688 219.183594 297.148438 219.421875 C 296.980469 219.691406 296.828125 219.976562 296.671875 220.253906 C 296.628906 220.335938 296.535156 220.585938 296.464844 220.632812 C 296.390625 220.683594 296.175781 220.601562 296.066406 220.667969 C 295.867188 220.773438 295.800781 221.011719 295.878906 221.222656 C 295.523438 221.078125 294.921875 221.292969 294.640625 221.542969 C 294.421875 221.214844 294.332031 221.042969 294.347656 220.65625 C 294.367188 220.179688 294.402344 219.710938 294.421875 219.234375 C 294.441406 218.847656 294.480469 218.433594 294.382812 218.054688 C 294.34375 217.898438 294.210938 217.734375 294.183594 217.585938 C 294.15625 217.417969 294.21875 217.1875 294.214844 217.007812 C 294.148438 215.480469 293.4375 213.714844 292.632812 212.4375 C 292.214844 211.773438 291.664062 211.28125 290.847656 211.28125 C 290.453125 211.28125 290.078125 211.492188 289.71875 211.46875 C 289.328125 211.441406 288.957031 211.328125 288.558594 211.328125 C 286.910156 211.316406 285.566406 212.222656 284.558594 213.496094 C 284.023438 214.171875 283.628906 214.933594 283.503906 215.796875 C 283.441406 216.230469 283.460938 216.652344 283.453125 217.089844 C 283.453125 217.445312 283.269531 217.835938 283.441406 218.183594 C 283.378906 217.960938 283.414062 217.710938 283.484375 217.488281 C 283.523438 217.921875 283.585938 218.339844 283.679688 218.761719 C 283.703125 218.871094 283.78125 219.070312 283.773438 219.179688 C 283.765625 219.355469 283.609375 219.609375 283.542969 219.773438 C 283.203125 220.605469 282.828125 221.417969 282.429688 222.21875 C 282.066406 222.941406 281.4375 223.683594 281.480469 224.535156 C 281.503906 224.941406 281.625 225.3125 281.851562 225.648438 C 282.089844 226.023438 282.371094 226.367188 282.683594 226.679688 C 281.328125 227.039062 279.671875 227.609375 279.09375 229.03125 C 278.441406 230.621094 279.039062 232.199219 279.007812 233.824219 C 279.105469 232.441406 278.726562 231.117188 279.046875 229.734375 C 279.351562 228.414062 280.304688 227.753906 281.496094 227.300781 C 283.367188 226.589844 285.679688 226.375 287.171875 224.90625 C 287.199219 225.203125 287.21875 225.539062 287.09375 225.816406 C 287.5 225.25 287.28125 224.226562 287.148438 223.601562 C 287.074219 223.25 286.835938 222.792969 286.824219 222.4375 C 286.71875 222.308594 286.75 222.230469 286.914062 222.199219 C 286.984375 222.144531 287.035156 222.074219 287.066406 221.988281 C 287.117188 221.8125 287.078125 221.65625 286.941406 221.53125 C 287.335938 222.0625 286.578125 222.226562 286.214844 222.152344 C 285.730469 222.058594 285.359375 221.765625 285.070312 221.367188 C 284.773438 220.960938 284.246094 220.128906 284.765625 219.707031 C 284.914062 219.585938 285.144531 219.503906 285.320312 219.554688 C 285.707031 219.667969 285.6875 219.988281 285.589844 220.296875 C 285.664062 220.1875 285.71875 220.0625 285.746094 219.929688 C 285.855469 220.058594 285.964844 220.210938 286.015625 220.375 C 286.234375 220.042969 286.3125 219.566406 286.355469 219.167969 C 286.382812 218.941406 286.386719 218.714844 286.378906 218.488281 C 286.363281 218.222656 286.367188 218.203125 286.550781 218.007812 C 286.441406 218.574219 286.367188 219.140625 286.320312 219.710938 C 286.296875 219.972656 286.304688 221.046875 285.789062 220.796875 C 286.4375 221.273438 286.558594 218.761719 286.613281 218.285156 C 286.65625 217.898438 286.78125 217.769531 287.027344 217.472656 C 287.277344 217.179688 287.496094 216.859375 287.683594 216.523438 C 288.054688 215.84375 288.03125 215.109375 288.304688 214.414062 C 288.546875 213.820312 289.035156 213.226562 289.4375 212.738281 C 289.558594 212.589844 289.695312 212.382812 289.855469 212.265625 C 290.035156 212.132812 290.089844 212.1875 290.308594 212.273438 C 290.675781 212.410156 291.027344 212.589844 291.363281 212.800781 C 292.425781 213.507812 293.1875 214.789062 293.394531 216.054688 C 293.464844 216.464844 293.535156 216.839844 293.730469 217.210938 C 293.882812 217.503906 294.109375 217.777344 294.195312 218.105469 C 294.429688 218.957031 294.238281 220.019531 294.253906 220.898438 C 294.117188 220.691406 293.835938 220.210938 293.804688 219.972656 C 293.777344 219.757812 293.898438 219.53125 293.65625 219.375 C 293.742188 219.535156 293.777344 219.707031 293.761719 219.886719 C 293.652344 219.667969 293.46875 219.28125 293.179688 219.253906 C 292.816406 219.226562 292.882812 219.523438 292.746094 219.730469 C 292.621094 219.925781 292.800781 219.738281 292.601562 219.886719 C 292.433594 220.007812 292.257812 220.054688 292.109375 220.210938 C 291.921875 220.40625 291.800781 220.71875 291.519531 220.796875 C 291.75 220.8125 291.964844 220.75 292.179688 220.679688 C 292.425781 220.59375 292.738281 220.6875 292.964844 220.5625 C 293.050781 220.730469 293.0625 220.84375 292.902344 220.984375 C 292.769531 221.105469 292.875 221.042969 292.664062 221.078125 C 292.460938 221.109375 292.207031 221.046875 291.996094 221.035156 C 292.269531 221.160156 292.554688 221.210938 292.855469 221.183594 C 292.769531 221.792969 293.015625 222.382812 293.152344 222.96875 C 293.195312 223.136719 293.257812 223.214844 293.132812 223.3125 C 293.085938 223.351562 292.921875 223.355469 292.859375 223.363281 C 292.714844 223.386719 292.5625 223.394531 292.410156 223.402344 C 291.820312 223.433594 291.222656 223.402344 290.632812 223.386719 C 290.089844 223.371094 289.457031 223.394531 288.949219 223.167969 C 289.4375 223.503906 290.15625 223.523438 290.730469 223.558594 C 291.351562 223.59375 292 223.628906 292.617188 223.542969 C 292.328125 224.175781 292.214844 224.839844 292.269531 225.535156 C 292.332031 224.933594 292.464844 224.351562 292.671875 223.78125 C 292.714844 223.984375 292.789062 224.175781 292.886719 224.359375 C 292.914062 224.402344 293.128906 224.601562 293.140625 224.640625 C 293.230469 224.871094 293.054688 225.386719 293.011719 225.660156 C 292.945312 226.082031 292.867188 226.519531 292.910156 226.945312 C 292.945312 227.324219 293.148438 227.628906 293.226562 227.980469 C 293.257812 228.121094 293.4375 228.785156 293.375 228.914062 C 293.292969 229.078125 292.46875 229.402344 292.261719 229.425781 C 291.917969 229.464844 291.957031 229.261719 292.035156 228.953125 C 292.132812 228.558594 292.308594 228.1875 292.429688 227.800781 C 292.238281 228.140625 291.507812 229.152344 291.867188 229.550781 C 292.214844 229.933594 293.113281 229.292969 293.421875 229.109375 C 293.648438 229.957031 293.621094 230.878906 293.757812 231.742188 C 293.90625 232.699219 294.167969 233.671875 294.203125 234.644531 C 294.34375 233.433594 294.003906 232.148438 293.875 230.949219 C 293.773438 229.910156 293.578125 228.890625 293.292969 227.890625 C 293.117188 227.296875 292.984375 226.859375 293.074219 226.222656 C 293.164062 225.582031 293.335938 224.953125 293.414062 224.308594 C 293.480469 223.765625 293.421875 223.277344 293.285156 222.753906 C 293.234375 222.558594 292.785156 221.28125 293.03125 221.152344 C 293.070312 221.46875 293.589844 221.636719 293.589844 221.246094 C 294.085938 222.179688 294.378906 223.238281 294.519531 224.285156 C 294.488281 223.796875 293.910156 220.273438 293.082031 220.761719 C 292.96875 220.40625 292.722656 219.921875 292.886719 219.558594 C 292.945312 219.878906 293.339844 220.144531 293.554688 219.785156 C 293.890625 220.457031 294.195312 221.109375 294.621094 221.730469 C 295.011719 222.296875 295.207031 223.136719 295.304688 223.816406 C 295.457031 223.3125 295.265625 222.667969 295.121094 222.1875 C 295.109375 222.296875 295.105469 222.410156 295.109375 222.519531 C 295.09375 222.519531 295.074219 222.515625 295.058594 222.507812 C 294.992188 222.183594 294.902344 221.90625 294.710938 221.636719 C 294.953125 221.445312 295.507812 221.253906 295.796875 221.390625 C 296.117188 221.535156 296.199219 222.03125 296.300781 222.332031 C 296.507812 222.925781 296.65625 223.851562 297.210938 224.207031 C 296.953125 223.96875 296.734375 223.484375 296.722656 223.125 C 296.710938 222.847656 296.949219 222.613281 296.925781 222.296875 C 296.851562 222.488281 296.828125 222.269531 296.773438 222.167969 C 296.695312 222.039062 296.609375 221.917969 296.507812 221.804688 C 296.339844 221.613281 296.011719 221.421875 295.984375 221.140625 C 295.910156 220.488281 296.671875 220.878906 296.90625 221.046875 C 297.640625 221.578125 298.175781 222.359375 298.023438 223.289062 C 297.933594 223.824219 297.800781 224.40625 297.570312 224.898438 C 297.34375 225.394531 296.964844 225.792969 296.734375 226.28125 C 296.523438 226.730469 296.394531 227.203125 296.347656 227.703125 C 296.328125 227.96875 296.359375 228.21875 296.304688 228.476562 C 296.257812 228.714844 296.175781 228.996094 296.1875 229.238281 C 296.207031 228.796875 296.402344 228.382812 296.429688 227.9375 C 296.851562 230.175781 297.441406 232.660156 298.570312 234.644531 C 297.792969 232.714844 297.386719 230.660156 296.78125 228.679688 C 296.683594 228.355469 296.523438 227.996094 296.496094 227.660156 C 296.464844 227.339844 296.628906 226.972656 296.746094 226.675781 C 296.890625 226.308594 297.101562 226.011719 297.320312 225.691406 C 297.410156 225.5625 297.515625 225.300781 297.632812 225.214844 C 297.765625 225.113281 297.847656 225.160156 298.042969 225.226562 C 299.550781 225.753906 299.445312 227.996094 299.40625 229.308594 C 299.351562 231.113281 299.289062 232.917969 299.90625 234.644531 C 299.789062 234.195312 299.695312 233.742188 299.628906 233.28125 Z M 293.695312 215.417969 C 293.71875 215.484375 293.738281 215.554688 293.761719 215.625 C 293.757812 215.601562 293.703125 215.421875 293.695312 215.417969 Z M 282.746094 226.660156 C 282.625 226.542969 282.523438 226.414062 282.433594 226.277344 C 282.597656 226.40625 282.78125 226.511719 282.972656 226.589844 C 282.898438 226.613281 282.820312 226.636719 282.746094 226.660156 Z M 285.179688 219.480469 C 285.179688 219.472656 285.214844 219.480469 285.179688 219.480469 Z M 285.640625 219.710938 C 285.515625 219.59375 285.371094 219.5 285.214844 219.429688 C 285.355469 219.25 285.507812 219.078125 285.664062 218.910156 C 285.664062 219.054688 285.671875 219.199219 285.675781 219.34375 C 285.675781 219.425781 285.746094 219.816406 285.640625 219.710938 Z M 286.261719 218.488281 C 286.234375 219.085938 286.171875 219.699219 286.011719 220.28125 C 285.96875 220.113281 285.804688 219.992188 285.761719 219.839844 C 285.726562 219.726562 285.785156 219.46875 285.785156 219.339844 C 285.78125 219.210938 285.707031 218.941406 285.746094 218.824219 C 285.808594 218.652344 286.140625 218.425781 286.269531 218.296875 Z M 287.84375 215.554688 C 287.640625 216.308594 287.195312 216.964844 286.699219 217.550781 C 286.710938 217.464844 286.71875 217.382812 286.734375 217.296875 C 286.6875 217.445312 286.660156 217.566406 286.585938 217.691406 C 286.457031 217.890625 286.355469 218.085938 286.261719 217.816406 C 286.28125 218.164062 285.949219 218.386719 285.730469 218.640625 C 285.722656 218.546875 285.710938 218.457031 285.699219 218.367188 C 285.640625 218.777344 285.457031 219.007812 285.179688 219.332031 C 285.011719 219.523438 284.921875 219.46875 284.6875 219.621094 C 284.636719 219.441406 284.589844 219.257812 284.554688 219.070312 C 284.5625 219.179688 284.667969 219.5625 284.636719 219.652344 C 284.617188 219.730469 284.480469 219.816406 284.441406 219.898438 C 284.328125 220.148438 284.382812 220.425781 284.464844 220.667969 C 284.566406 220.96875 284.710938 221.242188 284.894531 221.5 C 285.066406 221.734375 285.308594 221.867188 285.492188 222.078125 C 285.773438 222.40625 285.910156 223.039062 286.058594 223.460938 C 286.203125 223.871094 286.320312 224.289062 286.40625 224.710938 C 286.359375 223.839844 286.039062 223 285.722656 222.195312 C 285.964844 222.300781 286.488281 222.265625 286.605469 222.410156 C 286.761719 222.605469 286.820312 223.15625 286.882812 223.398438 C 286.964844 223.722656 287.132812 224.164062 287.117188 224.503906 C 287.109375 224.742188 287.109375 224.75 286.902344 224.921875 C 286.769531 225.035156 286.628906 225.136719 286.484375 225.230469 C 285.882812 225.625 285.207031 225.890625 284.535156 226.121094 C 284.179688 226.238281 283.78125 226.421875 283.410156 226.464844 C 283.160156 226.496094 283.167969 226.515625 283.039062 226.261719 C 282.972656 226.117188 282.929688 225.960938 282.910156 225.800781 C 282.960938 225.855469 283.019531 225.90625 283.085938 225.945312 C 282.707031 225.644531 282.941406 224.90625 283.046875 224.5 C 283.203125 223.90625 283.476562 223.359375 283.679688 222.78125 C 284.078125 221.660156 284.183594 220.460938 284.175781 219.277344 C 284.023438 220.394531 283.894531 221.503906 283.527344 222.574219 C 283.207031 223.5 282.746094 224.359375 282.746094 225.371094 C 282.566406 224.707031 282.914062 223.894531 283.085938 223.261719 C 282.855469 223.828125 282.617188 224.464844 282.652344 225.089844 C 282.679688 225.542969 282.792969 226.230469 283.160156 226.539062 C 282.847656 226.621094 282.285156 225.976562 282.183594 225.742188 C 281.964844 225.242188 282.003906 224.582031 282.203125 224.082031 C 282.398438 223.582031 282.667969 223.140625 282.820312 222.617188 C 283 221.996094 283.175781 221.390625 283.441406 220.796875 C 283.007812 221.585938 282.847656 222.457031 282.484375 223.273438 C 282.121094 224.09375 281.769531 224.722656 282.058594 225.65625 C 281.746094 225.207031 281.597656 224.609375 281.726562 224.070312 C 281.847656 223.5625 282.214844 223.105469 282.449219 222.648438 C 282.988281 221.59375 283.464844 220.480469 283.804688 219.34375 C 283.933594 220.128906 283.953125 221.230469 283.441406 221.898438 C 283.867188 221.414062 283.957031 220.660156 283.972656 220.039062 C 283.976562 219.710938 283.875 219.363281 283.890625 219.046875 C 283.902344 218.816406 284.023438 218.609375 283.992188 218.367188 C 283.996094 218.554688 283.925781 218.75 283.867188 218.921875 C 283.761719 218.410156 283.574219 217.71875 283.652344 217.199219 C 283.703125 216.878906 284.003906 216.671875 284.214844 216.433594 C 284.179688 216.746094 284.164062 217.058594 284.175781 217.375 C 284.207031 216.960938 284.191406 216.515625 284.429688 216.175781 C 284.683594 215.816406 284.96875 215.480469 285.199219 215.101562 C 285.019531 215.75 284.992188 216.429688 284.96875 217.101562 C 284.964844 217.195312 285.007812 217.527344 284.949219 217.609375 C 284.804688 217.804688 284.121094 217.757812 283.921875 217.722656 C 284.25 217.828125 284.609375 217.804688 284.941406 217.734375 C 284.929688 218.09375 284.925781 218.457031 284.847656 218.808594 C 284.9375 218.523438 284.875 218.121094 284.992188 217.859375 C 285.011719 217.8125 284.988281 217.753906 285.015625 217.71875 C 285.070312 217.648438 285.480469 217.570312 285.574219 217.53125 C 285.535156 217.746094 285.503906 217.960938 285.480469 218.183594 C 285.519531 218.023438 285.539062 217.816406 285.613281 217.667969 C 285.710938 217.460938 285.742188 217.460938 285.9375 217.359375 C 286.242188 217.1875 286.53125 216.984375 286.789062 216.753906 C 287.3125 216.28125 287.625 215.734375 287.945312 215.117188 C 287.914062 215.261719 287.886719 215.410156 287.84375 215.554688 Z M 293.789062 216.839844 C 293.582031 216.324219 293.617188 215.742188 293.414062 215.222656 C 293.214844 214.722656 292.964844 214.253906 292.652344 213.816406 C 292.332031 213.363281 291.929688 212.988281 291.457031 212.707031 C 291.195312 212.550781 290.925781 212.425781 290.644531 212.320312 C 290.523438 212.277344 290.402344 212.238281 290.28125 212.199219 C 290.09375 212.144531 289.914062 212.179688 290.144531 212.003906 C 289.453125 212.417969 288.910156 213.136719 288.464844 213.796875 C 288.570312 213.433594 288.863281 213.125 289.0625 212.800781 C 289.261719 212.484375 289.449219 212.164062 289.71875 211.902344 C 289.675781 211.996094 289.617188 212.03125 289.546875 212.003906 C 289.457031 211.972656 288.699219 213.238281 288.574219 213.414062 C 288.722656 212.929688 289.035156 211.691406 289.65625 211.597656 C 289.097656 211.621094 288.738281 212.578125 288.566406 213 C 288.523438 213.109375 288.300781 214.113281 288.027344 214.046875 C 288.089844 214.078125 288.222656 213.921875 288.253906 213.898438 C 287.839844 215.253906 286.96875 216.601562 285.71875 217.292969 C 286.109375 215.921875 286.546875 214.558594 287.03125 213.214844 C 286.636719 213.984375 286.328125 214.8125 286.066406 215.636719 C 285.933594 216.050781 285.8125 216.472656 285.710938 216.898438 C 285.683594 217.019531 285.679688 217.257812 285.613281 217.351562 C 285.511719 217.476562 285.15625 217.558594 285.007812 217.609375 C 285.039062 217.195312 285.066406 216.785156 285.101562 216.378906 C 285.128906 216.003906 285.179688 215.632812 285.265625 215.269531 C 285.378906 214.820312 285.59375 214.464844 285.789062 214.046875 C 285.707031 214.171875 285.621094 214.296875 285.539062 214.421875 C 285.859375 213.582031 286.347656 212.390625 287.152344 211.902344 C 286.390625 212.285156 285.898438 213.339844 285.570312 214.082031 C 285.394531 214.480469 285.261719 214.820312 285.007812 215.175781 C 284.789062 215.480469 284.570312 215.777344 284.332031 216.066406 C 284.453125 215.40625 284.648438 214.769531 284.917969 214.152344 C 284.621094 214.691406 284.414062 215.261719 284.304688 215.863281 C 284.207031 216.328125 283.882812 216.503906 283.640625 216.882812 C 283.613281 214.863281 284.75 213.121094 286.429688 212.066406 C 287.277344 211.53125 288.269531 211.375 289.261719 211.46875 C 289.488281 211.488281 289.730469 211.570312 289.949219 211.546875 C 290.472656 211.488281 290.886719 211.324219 291.417969 211.53125 C 290.921875 211.378906 290.390625 211.507812 289.917969 211.671875 C 290.347656 211.59375 290.78125 211.484375 291.226562 211.5625 C 291.429688 211.59375 291.617188 211.667969 291.792969 211.78125 C 291.875 211.84375 291.953125 211.914062 292.027344 211.984375 C 292.089844 212.03125 292.300781 212.320312 292.105469 212.035156 C 292.855469 212.921875 293.28125 214.175781 293.648438 215.265625 C 293.242188 214.492188 293.046875 213.621094 292.5625 212.882812 C 291.980469 211.996094 291.089844 211.738281 290.082031 211.902344 C 290.800781 211.871094 291.476562 211.929688 292.03125 212.449219 C 291.578125 212.132812 291.050781 212.179688 290.535156 212.25 C 291.175781 212.25 291.753906 212.222656 292.21875 212.753906 C 292.382812 212.9375 292.484375 213.152344 292.589844 213.371094 C 292.878906 213.933594 293.199219 214.484375 293.441406 215.070312 C 293.671875 215.625 294.03125 216.324219 294.019531 216.941406 C 294.046875 216.691406 293.980469 216.410156 293.921875 216.167969 C 294.050781 216.578125 294.109375 217 294.097656 217.429688 C 293.980469 217.242188 293.878906 217.046875 293.789062 216.839844 Z M 293.117188 224.382812 C 293.003906 224.230469 292.773438 223.847656 292.777344 223.660156 C 292.785156 223.433594 293.023438 223.472656 293.238281 223.390625 C 293.296875 223.75 293.265625 224.117188 293.214844 224.472656 Z M 293.558594 221.1875 C 293.695312 221.425781 293.09375 221.542969 293.097656 221.105469 C 293.097656 220.730469 293.425781 220.953125 293.558594 221.1875 Z M 292.855469 220.289062 L 292.949219 220.523438 C 292.722656 220.585938 292.5 220.449219 292.277344 220.511719 C 292.085938 220.5625 292.003906 220.695312 291.789062 220.707031 C 292.148438 220.453125 292.320312 220.046875 292.753906 219.886719 C 292.773438 220.023438 292.804688 220.160156 292.855469 220.289062 Z M 293.5 219.835938 C 293.234375 220.027344 292.796875 219.671875 292.984375 219.449219 C 293.164062 219.238281 293.683594 219.699219 293.5 219.835938 Z M 295.078125 222.585938 C 295.167969 222.609375 295.128906 222.777344 295.140625 222.855469 C 295.144531 222.867188 295.074219 222.585938 295.078125 222.585938 Z M 296.457031 221.855469 C 296.816406 222.203125 296.945312 222.4375 296.648438 222.851562 C 296.535156 222.472656 296.429688 222.0625 296.273438 221.703125 C 296.335938 221.75 296.398438 221.800781 296.457031 221.855469 Z M 297.660156 219.101562 C 297.792969 218.914062 298.046875 218.449219 298.355469 218.609375 C 298.628906 218.753906 298.335938 219.179688 298.222656 219.378906 C 298.039062 219.691406 298.023438 219.75 297.703125 219.53125 C 297.429688 219.347656 297.472656 219.355469 297.660156 219.101562 Z M 297.15625 221.007812 C 296.972656 220.855469 296.773438 220.742188 296.550781 220.660156 C 296.761719 220.320312 296.96875 219.980469 297.179688 219.648438 C 297.253906 219.535156 297.335938 219.300781 297.480469 219.261719 C 297.472656 219.289062 297.460938 219.308594 297.449219 219.332031 C 297.441406 219.320312 297.433594 219.3125 297.429688 219.296875 C 297.40625 219.574219 297.914062 219.773438 298.113281 219.734375 C 298.085938 219.730469 298.085938 219.722656 298.117188 219.707031 C 298.085938 220.171875 297.566406 220.761719 297.335938 221.164062 C 297.273438 221.109375 297.214844 221.058594 297.15625 221.007812 Z M 297.675781 221.527344 C 297.566406 221.398438 297.449219 221.316406 297.457031 221.175781 C 297.460938 221.105469 297.632812 220.898438 297.667969 220.847656 C 297.882812 221.011719 297.75 221.355469 297.714844 221.574219 Z M 297.675781 221.527344 " fill-opacity="1" fill-rule="nonzero"/></g><path fill="#000000" d="M 284.332031 222.21875 C 284.550781 223.335938 285.046875 224.445312 286.027344 225.082031 C 284.804688 224.082031 284.492188 222.5625 284.175781 221.089844 C 284.214844 221.46875 284.257812 221.847656 284.332031 222.21875 Z M 284.332031 222.21875 " fill-opacity="1" fill-rule="nonzero"/><path fill="#000000" d="M 291.988281 219.972656 C 292.152344 219.753906 292.40625 219.378906 292.710938 219.34375 C 292.214844 219.214844 291.761719 220.089844 291.601562 220.433594 C 291.738281 220.289062 291.867188 220.132812 291.988281 219.972656 Z M 291.988281 219.972656 " fill-opacity="1" fill-rule="nonzero"/><path fill="#000000" d="M 291.117188 229.910156 C 290.605469 230.289062 290.253906 229.324219 290.113281 229.015625 C 289.863281 228.472656 289.632812 227.902344 289.257812 227.433594 C 289.546875 228.160156 289.757812 228.972656 290.183594 229.628906 C 290.378906 229.933594 291.195312 230.476562 291.25 229.734375 C 291.222656 229.804688 291.179688 229.863281 291.117188 229.910156 Z M 291.117188 229.910156 " fill-opacity="1" fill-rule="nonzero"/><path fill="#000000" d="M 289.28125 230.175781 C 288.804688 230.53125 287.867188 230.277344 287.351562 230.175781 C 287.074219 230.121094 286.792969 230.058594 286.511719 230.007812 C 285.660156 229.847656 284.785156 229.742188 283.9375 229.558594 C 284.285156 229.710938 289.535156 231.109375 289.363281 230.035156 C 289.359375 230.097656 289.328125 230.140625 289.28125 230.175781 Z M 289.28125 230.175781 " fill-opacity="1" fill-rule="nonzero"/><path fill="#000000" d="M 219.839844 222.476562 C 220.410156 222.636719 220.855469 222.925781 221.183594 223.347656 C 221.515625 223.769531 221.683594 224.300781 221.683594 224.9375 C 221.683594 225.789062 221.355469 226.449219 220.710938 226.910156 C 220.066406 227.371094 219.132812 227.597656 217.90625 227.597656 L 213.195312 227.597656 L 213.195312 217.730469 L 217.628906 217.730469 C 218.753906 217.730469 219.621094 217.960938 220.234375 218.414062 C 220.855469 218.859375 221.167969 219.484375 221.167969 220.28125 C 221.167969 220.800781 221.042969 221.25 220.800781 221.625 C 220.566406 222 220.242188 222.289062 219.839844 222.476562 Z M 214.617188 218.875 L 214.617188 222.03125 L 217.5 222.03125 C 218.226562 222.03125 218.78125 221.898438 219.171875 221.636719 C 219.554688 221.367188 219.75 220.972656 219.75 220.453125 C 219.75 219.9375 219.554688 219.542969 219.171875 219.28125 C 218.78125 219.011719 218.226562 218.875 217.5 218.875 Z M 217.855469 226.453125 C 218.652344 226.453125 219.253906 226.320312 219.65625 226.058594 C 220.058594 225.792969 220.261719 225.382812 220.261719 224.820312 C 220.261719 223.726562 219.460938 223.175781 217.855469 223.175781 L 214.617188 223.175781 L 214.617188 226.453125 Z M 217.855469 226.453125 " fill-opacity="1" fill-rule="nonzero"/><path fill="#000000" d="M 231.027344 226.371094 L 231.027344 227.597656 L 223.855469 227.597656 L 223.855469 217.730469 L 230.828125 217.730469 L 230.828125 218.953125 L 225.277344 218.953125 L 225.277344 221.992188 L 230.210938 221.992188 L 230.210938 223.1875 L 225.277344 223.1875 L 225.277344 226.371094 Z M 231.027344 226.371094 " fill-opacity="1" fill-rule="nonzero"/><path fill="#000000" d="M 239.578125 225.136719 L 234.34375 225.136719 L 233.25 227.597656 L 231.804688 227.597656 L 236.261719 217.730469 L 237.65625 217.730469 L 242.144531 227.597656 L 240.671875 227.597656 Z M 239.089844 224.003906 L 236.960938 219.175781 L 234.828125 224.003906 Z M 239.089844 224.003906 " fill-opacity="1" fill-rule="nonzero"/><path fill="#000000" d="M 247.6875 227.714844 C 246.371094 227.714844 245.347656 227.339844 244.609375 226.582031 C 243.878906 225.828125 243.519531 224.75 243.519531 223.347656 L 243.519531 217.730469 L 244.925781 217.730469 L 244.925781 223.28125 C 244.925781 225.394531 245.851562 226.453125 247.703125 226.453125 C 248.601562 226.453125 249.292969 226.195312 249.765625 225.675781 C 250.246094 225.148438 250.492188 224.351562 250.492188 223.28125 L 250.492188 217.730469 L 251.859375 217.730469 L 251.859375 223.347656 C 251.859375 224.761719 251.492188 225.84375 250.753906 226.597656 C 250.023438 227.34375 249.003906 227.714844 247.6875 227.714844 Z M 247.6875 227.714844 " fill-opacity="1" fill-rule="nonzero"/><path fill="#000000" d="M 256.695312 218.953125 L 253.3125 218.953125 L 253.3125 217.730469 L 261.472656 217.730469 L 261.472656 218.953125 L 258.089844 218.953125 L 258.089844 227.597656 L 256.695312 227.597656 Z M 256.695312 218.953125 " fill-opacity="1" fill-rule="nonzero"/><path fill="#000000" d="M 266.777344 224.1875 L 266.777344 227.597656 L 265.382812 227.597656 L 265.382812 224.164062 L 261.472656 217.730469 L 262.972656 217.730469 L 266.132812 222.925781 L 269.300781 217.730469 L 270.695312 217.730469 Z M 266.777344 224.1875 " fill-opacity="1" fill-rule="nonzero"/></svg>