<svg width="48" height="18" viewBox="0 0 48 18" fill="none" xmlns="http://www.w3.org/2000/svg">
<path d="M21.2431 0L18.8751 5.02902C18.4513 5.93303 17.5764 6.38839 16.6875 6.38839C15.8195 6.38839 14.9305 5.94643 14.5 5.0625L13.0278 2.04911C12.4236 0.796875 11.125 0 9.69444 0H8L14.868 14.0358H14.8959L21.4653 0H21.2431Z" fill="#FFBFBF"/>
<path d="M47.2987 9.27455H47.0972C46.4583 12.6295 44.5277 13.6808 42.4513 13.6808C39.3749 13.6808 37.4375 11.0223 37.4375 6.97099C37.4375 3.08705 38.9931 0.46875 42.0833 0.46875C44.1736 0.46875 46.5208 1.96875 47.1111 5.0759H47.3333C46.7777 1.76786 44.3056 0 40.9583 0C36.4723 0 33.3333 3.11385 33.3333 7.16518C33.3333 11.7522 37.4028 14.2165 41.4028 14.2165C44.2569 14.2165 46.632 12.9911 47.2987 9.27455Z" fill="#FFBFBF"/>
<path d="M33.5213 7.10491C33.5213 2.83928 29.7644 0 26.0908 0C22.4241 0 18.6533 2.83928 18.6533 7.10491C18.6533 11.3705 22.4241 14.2165 26.0908 14.2165C29.7644 14.2165 33.5213 11.3705 33.5213 7.10491ZM22.7575 7.10491C22.7575 2.41071 23.6741 0.194194 26.0908 0.194194C28.5144 0.194194 29.4311 2.41071 29.4311 7.10491C29.4311 11.8192 28.5144 14.0156 26.0908 14.0156C23.6741 14.0156 22.7575 11.8192 22.7575 7.10491Z" fill="#FFBFBF"/>
<path d="M8 15.7489L8.68656 15.7411C8.83105 15.7395 8.95789 15.7581 9.08516 15.7901C9.20298 15.8089 9.30301 15.8412 9.3762 15.894C9.46759 15.9465 9.54121 16.0127 9.59661 16.079C9.64329 16.1522 9.67189 16.2322 9.67355 16.3192C9.6756 16.4263 9.64145 16.5273 9.57078 16.6151C9.49986 16.6896 9.40161 16.7509 9.28521 16.8058C9.44868 16.8441 9.58543 16.9095 9.68688 17.0156C9.77905 17.1083 9.83522 17.2148 9.83752 17.3354C9.83957 17.4425 9.81431 17.5365 9.77049 17.604C9.7176 17.6783 9.64642 17.7394 9.55725 17.7939C9.45888 17.8486 9.35137 17.8968 9.23457 17.9315C9.10871 17.9731 8.98252 17.988 8.83802 17.9896L8.04305 17.9986L8 15.7489ZM8.83392 17.7753C9.05075 17.7729 9.21264 17.7376 9.33786 17.6625C9.48069 17.5738 9.55097 17.4658 9.54854 17.3387C9.54623 17.2181 9.47198 17.1185 9.32607 17.0465C9.19778 16.9609 9.03435 16.9158 8.81752 16.9182L8.34779 16.9235L8.36419 17.7806L8.83392 17.7753ZM8.70501 16.7053C8.89478 16.7031 9.04778 16.6745 9.17321 16.6196C9.28936 16.5513 9.35088 16.4569 9.34883 16.3497C9.34652 16.2292 9.28129 16.1295 9.16244 16.0572C9.03471 15.9916 8.88042 15.9531 8.69066 15.9553L8.32934 15.9594L8.34369 16.7094L8.70501 16.7053Z" fill="#FFBFBF"/>
<path d="M13.8253 15.7056L15.3792 15.688L15.3833 15.9022L14.1547 15.9161L14.169 16.6661L15.1086 16.6555L15.1133 16.8965L14.1736 16.9072L14.1895 17.7374L15.4544 17.7231L15.4585 17.9374L13.8684 17.9554L13.8253 15.7056Z" fill="#FFBFBF"/>
<path d="M20.328 15.6011L20.4003 15.6003L21.6009 17.8906L21.2394 17.8947L20.9752 17.3082L19.8188 17.3213L19.541 17.9139L19.2158 17.9175L20.328 15.6011ZM20.8627 17.0953L20.3745 16.1364L19.9231 17.1059L20.8627 17.0953Z" fill="#FFBFBF"/>
<path d="M26.5588 17.8839C26.3871 17.8858 26.2332 17.8675 26.088 17.8356C25.9604 17.7835 25.8508 17.7245 25.7592 17.6518C25.6581 17.5659 25.5839 17.4663 25.5367 17.3596C25.4801 17.2398 25.4595 17.106 25.4567 16.9587L25.4311 15.6196L25.7203 15.6164L25.7454 16.9287C25.7474 17.0358 25.7675 17.1428 25.8237 17.2493C25.8707 17.3425 25.9174 17.4223 25.973 17.4887C26.0461 17.5415 26.1284 17.5873 26.2284 17.6198C26.3196 17.6589 26.4282 17.671 26.5547 17.6696C26.6721 17.6682 26.7803 17.6536 26.8789 17.6124C26.9957 17.5775 27.0762 17.5298 27.1292 17.4756C27.2003 17.4078 27.2439 17.3269 27.2693 17.2329C27.3124 17.1253 27.3374 17.0178 27.3353 16.9107L27.3102 15.5984L27.6354 15.5947L27.6611 16.9338C27.6639 17.0811 27.6304 17.2155 27.5603 17.3367C27.5083 17.4446 27.4379 17.5458 27.3491 17.6338C27.2512 17.7086 27.1349 17.7702 26.9914 17.8254C26.8656 17.8603 26.7213 17.882 26.5588 17.8839Z" fill="#FFBFBF"/>
<path d="M32.4784 15.7768L31.5027 15.7878L31.4986 15.5737L33.8114 15.5475L33.8155 15.7617L32.8037 15.7731L32.8426 17.8087L32.5174 17.8124L32.4784 15.7768Z" fill="#FFBFBF"/>
<path d="M38.3074 16.8855L37.3779 15.5298L37.7031 15.5261L38.4835 16.6424L39.2209 15.509L39.5461 15.5053L38.6326 16.8818L38.6495 17.7657L38.3243 17.7693L38.3074 16.8855Z" fill="#FFBFBF"/>
<path d="M3.69444 13.6138V6.91071H8.50695V6.70982H3.69444V0.200894H9.11111V0H0V10.2723C0 12.2277 1.64584 13.8147 3.69444 13.8147H9.11111V13.6138H3.69444Z" fill="#FFBFBF"/>
<line x1="3" y1="0.5" x2="9" y2="0.5" stroke="#FFBFBF"/>
<line x1="3" y1="6.5" x2="9" y2="6.5" stroke="#FFBFBF"/>
<line x1="2.90002" y1="13.12" x2="9.14002" y2="13.12" stroke="#FFBFBF"/>
</svg>
